<svg width="256" height="33" viewBox="0 0 256 33" fill="none" xmlns="http://www.w3.org/2000/svg">
<path d="M24.68 3.68C24.5733 5.04 24.4933 6.34667 24.44 7.6C24.4133 8.85333 24.4 9.81333 24.4 10.48C24.4 11.0667 24.4133 11.6267 24.44 12.16C24.4667 12.6933 24.4933 13.1467 24.52 13.52H23.6C23.1733 11.28 22.6267 9.50667 21.96 8.2C21.32 6.89333 20.5467 5.97333 19.64 5.44C18.7333 4.88 17.6667 4.6 16.44 4.6H15.52V27.44C15.52 28.5067 15.6267 29.3067 15.84 29.84C16.08 30.3733 16.5067 30.7333 17.12 30.92C17.7333 31.08 18.6267 31.1733 19.8 31.2V32C18.9733 31.9733 17.8667 31.9467 16.48 31.92C15.12 31.8933 13.6933 31.88 12.2 31.88C10.7333 31.88 9.34667 31.8933 8.04 31.92C6.73333 31.9467 5.68 31.9733 4.88 32V31.2C6.08 31.1733 6.98667 31.08 7.6 30.92C8.21333 30.7333 8.62667 30.3733 8.84 29.84C9.05333 29.3067 9.16 28.5067 9.16 27.44V4.6H8.28C7.05333 4.6 5.98667 4.88 5.08 5.44C4.17333 5.97333 3.4 6.89333 2.76 8.2C2.12 9.48 1.56 11.2533 1.08 13.52H0.16C0.213333 13.1467 0.24 12.6933 0.24 12.16C0.266667 11.6267 0.28 11.0667 0.28 10.48C0.28 9.81333 0.253333 8.85333 0.2 7.6C0.173333 6.34667 0.106667 5.04 1.49012e-08 3.68C1.22667 3.70667 2.56 3.73333 4 3.76C5.46667 3.78667 6.93333 3.8 8.4 3.8C9.86667 3.8 11.1867 3.8 12.36 3.8C13.56 3.8 14.88 3.8 16.32 3.8C17.7867 3.8 19.2533 3.78667 20.72 3.76C22.1867 3.73333 23.5067 3.70667 24.68 3.68ZM33.7644 0.719997V14.48C34.431 13.0933 35.3244 12.1333 36.4444 11.6C37.591 11.04 38.871 10.76 40.2844 10.76C41.431 10.76 42.351 10.9067 43.0444 11.2C43.7377 11.4667 44.2844 11.84 44.6844 12.32C45.1377 12.8267 45.4577 13.48 45.6444 14.28C45.8577 15.08 45.9644 16.16 45.9644 17.52V28.28C45.9644 29.4 46.151 30.16 46.5244 30.56C46.9244 30.96 47.591 31.16 48.5244 31.16V32C48.0177 31.9733 47.2444 31.9467 46.2044 31.92C45.191 31.8667 44.2044 31.84 43.2444 31.84C42.2044 31.84 41.191 31.8667 40.2044 31.92C39.2444 31.9467 38.5244 31.9733 38.0444 32V31.16C38.8444 31.16 39.4044 30.96 39.7244 30.56C40.0444 30.16 40.2044 29.4 40.2044 28.28V15.84C40.2044 15.1733 40.1377 14.6 40.0044 14.12C39.871 13.6133 39.6177 13.2267 39.2444 12.96C38.8977 12.6667 38.391 12.52 37.7244 12.52C37.0044 12.52 36.3377 12.72 35.7244 13.12C35.1377 13.4933 34.6577 14.0267 34.2844 14.72C33.9377 15.4133 33.7644 16.2133 33.7644 17.12V28.28C33.7644 29.4 33.9244 30.16 34.2444 30.56C34.5644 30.96 35.1244 31.16 35.9244 31.16V32C35.4444 31.9733 34.7377 31.9467 33.8044 31.92C32.871 31.8667 31.9244 31.84 30.9644 31.84C29.9244 31.84 28.871 31.8667 27.8044 31.92C26.7644 31.9467 25.9777 31.9733 25.4444 32V31.16C26.3777 31.16 27.031 30.96 27.4044 30.56C27.8044 30.16 28.0044 29.4 28.0044 28.28V5.52C28.0044 4.32 27.8177 3.44 27.4444 2.88C27.0977 2.29333 26.431 2 25.4444 2V1.16C26.2977 1.24 27.1244 1.28 27.9244 1.28C29.0177 1.28 30.0577 1.24 31.0444 1.16C32.031 1.05333 32.9377 0.906665 33.7644 0.719997ZM59.5003 10.76C61.847 10.76 63.687 11.4533 65.0203 12.84C66.3536 14.2267 67.0203 16.4933 67.0203 19.64H53.8603L53.7803 18.88H61.9803C62.007 17.5733 61.927 16.3733 61.7403 15.28C61.5536 14.16 61.2603 13.2667 60.8603 12.6C60.4603 11.9333 59.927 11.6 59.2603 11.6C58.327 11.6 57.527 12.1867 56.8603 13.36C56.2203 14.5333 55.8336 16.48 55.7003 19.2L55.8203 19.44C55.7936 19.76 55.767 20.0933 55.7403 20.44C55.7403 20.7867 55.7403 21.1467 55.7403 21.52C55.7403 23.36 55.9936 24.8533 56.5003 26C57.0336 27.1467 57.7003 27.9867 58.5003 28.52C59.3003 29.0267 60.1136 29.28 60.9403 29.28C61.5003 29.28 62.0736 29.2 62.6603 29.04C63.2736 28.8533 63.887 28.5333 64.5003 28.08C65.1136 27.6 65.687 26.9333 66.2203 26.08L66.9403 26.32C66.6203 27.3333 66.1136 28.32 65.4203 29.28C64.727 30.24 63.847 31.0267 62.7803 31.64C61.7136 32.2533 60.4336 32.56 58.9403 32.56C57.127 32.56 55.527 32.1733 54.1403 31.4C52.7536 30.6267 51.6603 29.4533 50.8603 27.88C50.087 26.3067 49.7003 24.3067 49.7003 21.88C49.7003 19.4 50.1136 17.3333 50.9403 15.68C51.7936 14.0267 52.9536 12.8 54.4203 12C55.9136 11.1733 57.607 10.76 59.5003 10.76ZM83.7766 3.12C85.5899 3.12 87.0699 3.37333 88.2166 3.88C89.3632 4.38667 90.3899 5 91.2966 5.72C91.6166 5.96 91.8832 6.08 92.0966 6.08C92.6032 6.08 92.9366 5.28 93.0966 3.68H94.0166C93.9632 4.72 93.9232 5.98667 93.8966 7.48C93.8699 8.94667 93.8566 10.9067 93.8566 13.36H92.9366C92.7499 11.76 92.4566 10.3733 92.0566 9.2C91.6832 8 90.9766 6.97333 89.9366 6.12C89.2966 5.50667 88.4966 5.02667 87.5366 4.68C86.6032 4.33333 85.6566 4.16 84.6966 4.16C83.2299 4.16 81.9766 4.54666 80.9366 5.32C79.8966 6.06666 79.0432 7.09333 78.3766 8.4C77.7099 9.70667 77.2166 11.1867 76.8966 12.84C76.5766 14.4667 76.4166 16.16 76.4166 17.92C76.4166 22.72 77.0699 26.2267 78.3766 28.44C79.7099 30.6533 81.6166 31.76 84.0966 31.76C84.7366 31.76 85.2966 31.68 85.7766 31.52C86.2566 31.36 86.6432 31.1733 86.9366 30.96C87.3099 30.6933 87.5632 30.4133 87.6966 30.12C87.8299 29.8 87.8966 29.3867 87.8966 28.88V24.96C87.8966 23.7333 87.7899 22.8267 87.5766 22.24C87.3899 21.6267 87.0032 21.2133 86.4166 21C85.8299 20.7867 84.9766 20.6667 83.8566 20.64V19.84C84.4166 19.8667 85.0832 19.8933 85.8566 19.92C86.6566 19.92 87.4832 19.9333 88.3366 19.96C89.1899 19.96 89.9766 19.96 90.6966 19.96C91.8166 19.96 92.8432 19.9467 93.7766 19.92C94.7099 19.8933 95.4699 19.8667 96.0566 19.84V20.64C95.5499 20.6667 95.1632 20.76 94.8966 20.92C94.6566 21.08 94.4832 21.4 94.3766 21.88C94.2966 22.36 94.2566 23.0933 94.2566 24.08V32H93.4566C93.4299 31.5467 93.3232 31.0533 93.1366 30.52C92.9766 29.9867 92.6966 29.72 92.2966 29.72C92.1099 29.72 91.8566 29.7733 91.5366 29.88C91.2432 29.96 90.7766 30.1867 90.1366 30.56C89.1499 31.12 88.1099 31.6 87.0166 32C85.9232 32.3733 84.7766 32.56 83.5766 32.56C80.4832 32.56 77.8699 31.9867 75.7366 30.84C73.6032 29.6933 71.9899 28.0533 70.8966 25.92C69.8299 23.76 69.2966 21.1733 69.2966 18.16C69.2966 15.12 69.9099 12.48 71.1366 10.24C72.3899 8 74.0966 6.25333 76.2566 5C78.4432 3.74666 80.9499 3.12 83.7766 3.12ZM110.911 10.76C111.764 10.76 112.457 10.9467 112.991 11.32C113.524 11.6667 113.911 12.12 114.151 12.68C114.417 13.24 114.551 13.8267 114.551 14.44C114.551 15.4267 114.257 16.24 113.671 16.88C113.111 17.4933 112.364 17.8 111.431 17.8C110.497 17.8 109.764 17.5733 109.231 17.12C108.724 16.64 108.471 16.0133 108.471 15.24C108.471 14.4933 108.631 13.88 108.951 13.4C109.297 12.8933 109.724 12.4667 110.231 12.12C109.857 12.0133 109.484 12.0267 109.111 12.16C108.604 12.24 108.124 12.4533 107.671 12.8C107.217 13.12 106.831 13.5333 106.511 14.04C106.191 14.52 105.937 15.0533 105.751 15.64C105.564 16.2 105.471 16.7467 105.471 17.28V27.88C105.471 29.16 105.777 30.0267 106.391 30.48C107.031 30.9333 107.977 31.16 109.231 31.16V32C108.617 31.9733 107.724 31.9467 106.551 31.92C105.377 31.8667 104.151 31.84 102.871 31.84C101.804 31.84 100.724 31.8667 99.6306 31.92C98.5373 31.9467 97.7106 31.9733 97.1506 32V31.16C98.084 31.16 98.7373 30.96 99.1106 30.56C99.5106 30.16 99.7106 29.4 99.7106 28.28V15.68C99.7106 14.48 99.524 13.6 99.1506 13.04C98.804 12.4533 98.1373 12.16 97.1506 12.16V11.32C98.004 11.4 98.8306 11.44 99.6306 11.44C100.751 11.44 101.791 11.4 102.751 11.32C103.737 11.2133 104.644 11.0667 105.471 10.88V14.6C105.791 13.88 106.217 13.2267 106.751 12.64C107.284 12.0533 107.897 11.6 108.591 11.28C109.284 10.9333 110.057 10.76 110.911 10.76ZM124.796 10.76C127.142 10.76 128.982 11.4533 130.316 12.84C131.649 14.2267 132.316 16.4933 132.316 19.64H119.156L119.076 18.88H127.276C127.302 17.5733 127.222 16.3733 127.036 15.28C126.849 14.16 126.556 13.2667 126.156 12.6C125.756 11.9333 125.222 11.6 124.556 11.6C123.622 11.6 122.822 12.1867 122.156 13.36C121.516 14.5333 121.129 16.48 120.996 19.2L121.116 19.44C121.089 19.76 121.062 20.0933 121.036 20.44C121.036 20.7867 121.036 21.1467 121.036 21.52C121.036 23.36 121.289 24.8533 121.796 26C122.329 27.1467 122.996 27.9867 123.796 28.52C124.596 29.0267 125.409 29.28 126.236 29.28C126.796 29.28 127.369 29.2 127.956 29.04C128.569 28.8533 129.182 28.5333 129.796 28.08C130.409 27.6 130.982 26.9333 131.516 26.08L132.236 26.32C131.916 27.3333 131.409 28.32 130.716 29.28C130.022 30.24 129.142 31.0267 128.076 31.64C127.009 32.2533 125.729 32.56 124.236 32.56C122.422 32.56 120.822 32.1733 119.436 31.4C118.049 30.6267 116.956 29.4533 116.156 27.88C115.382 26.3067 114.996 24.3067 114.996 21.88C114.996 19.4 115.409 17.3333 116.236 15.68C117.089 14.0267 118.249 12.8 119.716 12C121.209 11.1733 122.902 10.76 124.796 10.76ZM139.352 32.28C138.152 32.28 137.152 32.0533 136.352 31.6C135.552 31.1467 134.965 30.5467 134.592 29.8C134.219 29.0267 134.032 28.1867 134.032 27.28C134.032 26.1333 134.285 25.2 134.792 24.48C135.325 23.76 136.005 23.1733 136.832 22.72C137.659 22.2667 138.525 21.8933 139.432 21.6C140.365 21.3067 141.245 21.0267 142.072 20.76C142.925 20.4667 143.605 20.1333 144.112 19.76C144.645 19.36 144.912 18.8533 144.912 18.24V15.12C144.912 14.4267 144.792 13.8133 144.552 13.28C144.339 12.72 143.992 12.2933 143.512 12C143.059 11.7067 142.459 11.56 141.712 11.56C141.179 11.56 140.645 11.64 140.112 11.8C139.579 11.9333 139.139 12.1733 138.792 12.52C139.539 12.7867 140.112 13.2 140.512 13.76C140.939 14.2933 141.152 14.9067 141.152 15.6C141.152 16.5067 140.832 17.2267 140.192 17.76C139.579 18.2933 138.845 18.56 137.992 18.56C137.032 18.56 136.299 18.2667 135.792 17.68C135.312 17.0667 135.072 16.3333 135.072 15.48C135.072 14.7067 135.259 14.0667 135.632 13.56C136.032 13.0533 136.579 12.5733 137.272 12.12C138.019 11.6933 138.912 11.36 139.952 11.12C141.019 10.88 142.165 10.76 143.392 10.76C144.619 10.76 145.725 10.8933 146.712 11.16C147.699 11.4 148.525 11.8533 149.192 12.52C149.805 13.1333 150.205 13.8933 150.392 14.8C150.579 15.68 150.672 16.8 150.672 18.16V29.04C150.672 29.7067 150.739 30.1733 150.872 30.44C151.005 30.68 151.232 30.8 151.552 30.8C151.792 30.8 152.019 30.7333 152.232 30.6C152.472 30.4667 152.725 30.3067 152.992 30.12L153.392 30.8C152.832 31.28 152.179 31.6533 151.432 31.92C150.712 32.16 149.899 32.28 148.992 32.28C148.005 32.28 147.219 32.1467 146.632 31.88C146.045 31.5867 145.619 31.2 145.352 30.72C145.112 30.24 144.992 29.68 144.992 29.04C144.352 30.0533 143.579 30.8533 142.672 31.44C141.765 32 140.659 32.28 139.352 32.28ZM142.192 29.72C142.725 29.72 143.205 29.6 143.632 29.36C144.085 29.0933 144.512 28.6667 144.912 28.08V19.88C144.672 20.28 144.339 20.64 143.912 20.96C143.485 21.28 143.032 21.6133 142.552 21.96C142.072 22.28 141.605 22.64 141.152 23.04C140.725 23.44 140.379 23.9333 140.112 24.52C139.845 25.1067 139.712 25.8133 139.712 26.64C139.712 27.68 139.939 28.4533 140.392 28.96C140.845 29.4667 141.445 29.72 142.192 29.72ZM161.855 4.76V11.32H166.575V12.12H161.855V28.28C161.855 29.08 162.002 29.6533 162.295 30C162.588 30.32 163.028 30.48 163.615 30.48C164.095 30.48 164.575 30.3067 165.055 29.96C165.535 29.5867 165.962 28.96 166.335 28.08L167.015 28.44C166.588 29.64 165.935 30.6267 165.055 31.4C164.202 32.1733 163.028 32.56 161.535 32.56C160.655 32.56 159.882 32.44 159.215 32.2C158.548 31.9867 157.988 31.6533 157.535 31.2C156.948 30.6133 156.562 29.8933 156.375 29.04C156.188 28.16 156.095 27.0267 156.095 25.64V12.12H152.735V11.32H156.095V6.04C157.215 6.04 158.242 5.94667 159.175 5.76C160.135 5.54667 161.028 5.21333 161.855 4.76ZM167.398 3.68C168.064 3.70667 168.958 3.73333 170.078 3.76C171.224 3.78667 172.358 3.8 173.478 3.8C174.758 3.8 175.998 3.78667 177.198 3.76C178.398 3.73333 179.251 3.72 179.758 3.72C182.238 3.72 184.291 4 185.918 4.56C187.571 5.09333 188.798 5.88 189.598 6.92C190.424 7.96 190.838 9.21333 190.838 10.68C190.838 11.5867 190.651 12.5067 190.278 13.44C189.904 14.3467 189.264 15.2 188.358 16C187.478 16.7733 186.264 17.4 184.718 17.88C183.171 18.3333 181.224 18.56 178.878 18.56H175.038V17.76H178.478C180.051 17.76 181.238 17.4667 182.038 16.88C182.864 16.2667 183.424 15.4667 183.718 14.48C184.038 13.4667 184.198 12.3467 184.198 11.12C184.198 9.01333 183.824 7.38667 183.078 6.24C182.331 5.06667 181.051 4.48 179.238 4.48C178.198 4.48 177.518 4.70667 177.198 5.16C176.904 5.61333 176.758 6.53333 176.758 7.92V27.76C176.758 28.72 176.824 29.44 176.958 29.92C177.118 30.4 177.411 30.72 177.838 30.88C178.264 31.04 178.904 31.1467 179.758 31.2V32C179.038 31.9467 178.131 31.92 177.038 31.92C175.944 31.8933 174.838 31.88 173.718 31.88C172.438 31.88 171.224 31.8933 170.078 31.92C168.958 31.92 168.064 31.9467 167.398 32V31.2C168.251 31.1467 168.891 31.04 169.318 30.88C169.744 30.72 170.024 30.4 170.158 29.92C170.318 29.44 170.398 28.72 170.398 27.76V7.92C170.398 6.93333 170.318 6.21333 170.158 5.76C170.024 5.28 169.731 4.96 169.278 4.8C168.851 4.61333 168.224 4.50667 167.398 4.48V3.68ZM174.958 17.88C176.104 17.9067 177.091 17.96 177.918 18.04C178.771 18.12 179.518 18.2 180.158 18.28C180.798 18.3333 181.371 18.3733 181.878 18.4C184.304 18.6133 186.091 19.1333 187.238 19.96C188.411 20.7867 189.171 22.0267 189.518 23.68L190.438 27.8C190.678 28.8667 190.931 29.6133 191.198 30.04C191.464 30.4667 191.851 30.68 192.358 30.68C192.704 30.6533 192.984 30.5733 193.198 30.44C193.438 30.28 193.691 30.0533 193.958 29.76L194.518 30.24C193.798 31.0667 193.024 31.6533 192.198 32C191.371 32.3733 190.371 32.56 189.198 32.56C187.758 32.56 186.571 32.2533 185.638 31.64C184.704 31.0267 184.091 29.8933 183.798 28.24L183.078 24.24C182.891 23.12 182.664 22.1467 182.398 21.32C182.131 20.4667 181.758 19.8 181.278 19.32C180.824 18.8133 180.184 18.56 179.358 18.56H175.038L174.958 17.88ZM204.213 10.76C206.559 10.76 208.399 11.4533 209.733 12.84C211.066 14.2267 211.733 16.4933 211.733 19.64H198.573L198.493 18.88H206.693C206.719 17.5733 206.639 16.3733 206.453 15.28C206.266 14.16 205.973 13.2667 205.573 12.6C205.173 11.9333 204.639 11.6 203.973 11.6C203.039 11.6 202.239 12.1867 201.573 13.36C200.933 14.5333 200.546 16.48 200.413 19.2L200.533 19.44C200.506 19.76 200.479 20.0933 200.453 20.44C200.453 20.7867 200.453 21.1467 200.453 21.52C200.453 23.36 200.706 24.8533 201.213 26C201.746 27.1467 202.413 27.9867 203.213 28.52C204.013 29.0267 204.826 29.28 205.653 29.28C206.213 29.28 206.786 29.2 207.373 29.04C207.986 28.8533 208.599 28.5333 209.213 28.08C209.826 27.6 210.399 26.9333 210.933 26.08L211.653 26.32C211.333 27.3333 210.826 28.32 210.133 29.28C209.439 30.24 208.559 31.0267 207.493 31.64C206.426 32.2533 205.146 32.56 203.653 32.56C201.839 32.56 200.239 32.1733 198.853 31.4C197.466 30.6267 196.373 29.4533 195.573 27.88C194.799 26.3067 194.413 24.3067 194.413 21.88C194.413 19.4 194.826 17.3333 195.653 15.68C196.506 14.0267 197.666 12.8 199.133 12C200.626 11.1733 202.319 10.76 204.213 10.76ZM218.769 32.28C217.569 32.28 216.569 32.0533 215.769 31.6C214.969 31.1467 214.382 30.5467 214.009 29.8C213.636 29.0267 213.449 28.1867 213.449 27.28C213.449 26.1333 213.702 25.2 214.209 24.48C214.742 23.76 215.422 23.1733 216.249 22.72C217.076 22.2667 217.942 21.8933 218.849 21.6C219.782 21.3067 220.662 21.0267 221.489 20.76C222.342 20.4667 223.022 20.1333 223.529 19.76C224.062 19.36 224.329 18.8533 224.329 18.24V15.12C224.329 14.4267 224.209 13.8133 223.969 13.28C223.756 12.72 223.409 12.2933 222.929 12C222.476 11.7067 221.876 11.56 221.129 11.56C220.596 11.56 220.062 11.64 219.529 11.8C218.996 11.9333 218.556 12.1733 218.209 12.52C218.956 12.7867 219.529 13.2 219.929 13.76C220.356 14.2933 220.569 14.9067 220.569 15.6C220.569 16.5067 220.249 17.2267 219.609 17.76C218.996 18.2933 218.262 18.56 217.409 18.56C216.449 18.56 215.716 18.2667 215.209 17.68C214.729 17.0667 214.489 16.3333 214.489 15.48C214.489 14.7067 214.676 14.0667 215.049 13.56C215.449 13.0533 215.996 12.5733 216.689 12.12C217.436 11.6933 218.329 11.36 219.369 11.12C220.436 10.88 221.582 10.76 222.809 10.76C224.036 10.76 225.142 10.8933 226.129 11.16C227.116 11.4 227.942 11.8533 228.609 12.52C229.222 13.1333 229.622 13.8933 229.809 14.8C229.996 15.68 230.089 16.8 230.089 18.16V29.04C230.089 29.7067 230.156 30.1733 230.289 30.44C230.422 30.68 230.649 30.8 230.969 30.8C231.209 30.8 231.436 30.7333 231.649 30.6C231.889 30.4667 232.142 30.3067 232.409 30.12L232.809 30.8C232.249 31.28 231.596 31.6533 230.849 31.92C230.129 32.16 229.316 32.28 228.409 32.28C227.422 32.28 226.636 32.1467 226.049 31.88C225.462 31.5867 225.036 31.2 224.769 30.72C224.529 30.24 224.409 29.68 224.409 29.04C223.769 30.0533 222.996 30.8533 222.089 31.44C221.182 32 220.076 32.28 218.769 32.28ZM221.609 29.72C222.142 29.72 222.622 29.6 223.049 29.36C223.502 29.0933 223.929 28.6667 224.329 28.08V19.88C224.089 20.28 223.756 20.64 223.329 20.96C222.902 21.28 222.449 21.6133 221.969 21.96C221.489 22.28 221.022 22.64 220.569 23.04C220.142 23.44 219.796 23.9333 219.529 24.52C219.262 25.1067 219.129 25.8133 219.129 26.64C219.129 27.68 219.356 28.4533 219.809 28.96C220.262 29.4667 220.862 29.72 221.609 29.72ZM252.832 0.679998V27.6C252.832 28.8 253.019 29.6933 253.392 30.28C253.766 30.84 254.432 31.12 255.392 31.12V31.96C254.566 31.88 253.739 31.84 252.912 31.84C251.792 31.84 250.739 31.88 249.752 31.96C248.792 32.04 247.899 32.1867 247.072 32.4V5.48C247.072 4.28 246.886 3.4 246.512 2.84C246.166 2.25333 245.499 1.96 244.512 1.96V1.12C245.366 1.2 246.192 1.24 246.992 1.24C248.086 1.24 249.126 1.2 250.112 1.12C251.099 1.01333 252.006 0.866665 252.832 0.679998ZM242.632 10.76C243.806 10.76 244.832 10.96 245.712 11.36C246.619 11.7333 247.326 12.3733 247.832 13.28L247.352 13.72C247.006 13.08 246.539 12.6267 245.952 12.36C245.392 12.0667 244.792 11.92 244.152 11.92C242.792 11.92 241.712 12.72 240.912 14.32C240.112 15.8933 239.726 18.3333 239.752 21.64C239.752 23.9067 239.899 25.72 240.192 27.08C240.512 28.4133 240.952 29.3733 241.512 29.96C242.099 30.5467 242.766 30.84 243.512 30.84C244.419 30.84 245.232 30.48 245.952 29.76C246.672 29.04 247.059 28.0667 247.112 26.84L247.312 28.24C246.912 29.6533 246.259 30.7333 245.352 31.48C244.472 32.2 243.312 32.56 241.872 32.56C240.299 32.56 238.886 32.1733 237.632 31.4C236.406 30.6267 235.446 29.44 234.752 27.84C234.059 26.2133 233.712 24.12 233.712 21.56C233.712 19.1333 234.099 17.1333 234.872 15.56C235.646 13.96 236.699 12.76 238.032 11.96C239.392 11.16 240.926 10.76 242.632 10.76Z" fill="white"/>
</svg>
