<svg width="800" height="636" viewBox="0 0 800 636" fill="none" xmlns="http://www.w3.org/2000/svg">
<path d="M696.79 53.4653C692.292 47.0493 684.674 44.1587 677.218 45.2663C676.935 45.1988 676.651 45.0772 676.367 45.0367L371.033 0.219272C367.697 -0.2805 364.293 0.0842018 361.119 1.24583L116.568 90.8806C116.46 90.9211 116.366 90.9887 116.258 91.0292C116.001 91.1373 115.758 91.2994 115.488 91.3939C114.151 91.9882 112.908 92.6906 111.76 93.5146C111.409 93.7712 111.071 94.0278 110.72 94.3115C109.464 95.3381 108.315 96.4592 107.356 97.7424C107.302 97.8234 107.221 97.8639 107.167 97.945L3.90362 239.205C-0.0540349 244.621 -1.08059 251.672 1.17513 257.994C3.43086 264.329 8.68522 269.11 15.1958 270.785L104.804 293.923V515.457C104.804 524.359 110.625 532.233 119.148 534.84L447.242 635.092C447.35 635.146 447.472 635.105 447.58 635.159C449.336 635.646 451.173 635.956 453.01 635.97C453.05 635.97 453.104 635.997 453.158 635.997C455.09 635.997 456.994 635.646 458.885 635.092C459.48 634.903 460.033 634.646 460.641 634.389C461.438 634.092 462.222 633.876 463.005 633.471L698.438 502.814C704.881 499.235 708.866 492.454 708.866 485.093V263.599L788.505 225.373C793.868 222.807 797.825 217.985 799.338 212.231C800.837 206.463 799.743 200.344 796.326 195.468L696.79 53.4653ZM370.237 41.0655L608.56 76.0496L450.47 149.557L200.125 103.429L370.237 41.0655ZM132.386 132.146L419.241 185.013L334.928 311.496L54.2455 239.029L132.386 132.146ZM145.326 500.464V304.378L338.724 354.315C340.412 354.733 342.101 354.963 343.789 354.963C350.448 354.963 356.824 351.667 360.646 345.94L432.897 237.57V588.329L145.326 500.464ZM668.33 473.152L473.406 581.306V261.276L508.998 336.904C511.307 341.78 515.468 345.562 520.533 347.345C522.735 348.155 525.031 348.52 527.314 348.52C530.326 348.52 533.311 347.845 536.08 346.548L668.303 283.09L668.33 473.152ZM536.985 301.177L480.159 180.448L673.342 90.624L749.442 199.183L536.985 301.177Z" fill="#E6A800"/>
</svg>
