<svg width="26" height="26" viewBox="0 0 26 26" fill="none" xmlns="http://www.w3.org/2000/svg">
<path d="M0 10.8174C0 16.785 4.85504 21.6347 10.8174 21.6347C13.5643 21.6347 16.077 20.602 17.9881 18.9091L24.8821 25.803C25.0098 25.9308 25.1749 25.9947 25.3452 25.9947C25.5156 25.9947 25.6806 25.9308 25.8084 25.803C26.0639 25.5475 26.0639 25.1376 25.8084 24.8821L18.9091 17.9881C20.602 16.077 21.6347 13.5696 21.6347 10.8174C21.6347 4.84971 16.7797 0 10.8174 0C4.85504 0 0 4.84971 0 10.8174ZM20.3305 10.8174C20.3305 16.061 16.061 20.3305 10.8174 20.3305C5.57371 20.3305 1.30426 16.061 1.30426 10.8174C1.30426 5.57371 5.57371 1.30426 10.8174 1.30426C16.061 1.30426 20.3305 5.56839 20.3305 10.8174Z" fill="#FEF7CD"/>
</svg>
